<?xml version="1.0" standalone="no"?>
<!DOCTYPE svg PUBLIC "-//W3C//DTD SVG 20010904//EN"
 "http://www.w3.org/TR/2001/REC-SVG-20010904/DTD/svg10.dtd">
<svg version="1.0" xmlns="http://www.w3.org/2000/svg"
 width="640.000000pt" height="480.000000pt" viewBox="0 0 640.000000 480.000000"
 preserveAspectRatio="xMidYMid meet">
<metadata>
Created by potrace 1.16, written by Peter Selinger 2001-2019
</metadata>
<g transform="translate(0.000000,480.000000) scale(1.000000,-1.000000)"
fill="#000000" stroke="none">
<path d="M0 240 l0 -240 124 0 124 0 1 2 c1 1 1 3 1 5 -1 3 4 21 8 28 2 4 2 6
2 19 l0 15 -7 3 c-9 5 -10 8 -10 19 1 7 2 12 3 18 4 10 10 25 12 30 1 2 2 4 2
5 0 1 -5 -1 -12 -6 -7 -5 -8 -4 -8 5 1 10 5 18 8 18 1 -1 3 -1 4 -2 2 0 2 0 2
2 0 3 6 12 12 18 3 2 7 7 9 10 2 3 6 7 8 9 3 3 3 3 3 9 0 8 1 9 7 9 4 0 4 2
-2 5 -8 5 -20 18 -23 25 -2 6 -2 6 -2 17 0 5 1 6 3 7 1 1 3 3 4 4 1 1 3 2 5 3
2 1 3 2 3 2 0 2 -10 7 -13 7 -3 0 -6 2 -6 4 0 0 1 1 2 1 1 0 2 1 3 2 0 3 4 3
7 0 1 -2 3 -2 5 -2 2 1 2 1 2 4 -4 13 -6 32 -4 37 2 6 4 5 11 -2 l5 -7 6 4 c5
5 14 9 19 9 l2 0 0 -58 c0 -46 0 -57 -1 -55 -2 4 -3 3 -6 -2 -3 -4 -3 -4 -1
-5 1 0 3 0 5 0 l4 0 -1 -108 0 -108 40 0 c38 0 40 0 39 2 0 1 -1 4 -1 7 -1 5
-7 25 -9 26 -2 2 -1 24 1 27 0 2 1 3 2 3 0 0 4 3 9 6 4 4 11 9 15 12 4 3 8 7
10 8 1 1 6 5 11 9 15 11 17 13 19 20 0 3 1 9 2 14 0 11 0 11 -14 11 l-12 1 -5
-4 c-2 -2 -9 -9 -15 -15 -6 -6 -12 -11 -13 -10 -2 1 -2 4 1 7 2 2 2 3 2 8 0 3
0 6 0 7 0 0 1 2 1 5 1 4 -1 12 -4 17 0 1 -2 5 -3 10 -2 5 -4 10 -4 11 -1 2 -1
6 -1 11 -1 10 -1 12 -9 14 -9 3 -11 4 -6 4 8 2 27 14 34 22 10 11 9 24 -2 35
l-4 4 3 6 c4 10 2 12 -8 7 -2 -1 -3 -1 -4 -1 0 0 1 5 2 11 6 23 7 35 2 38 -2
1 -3 1 -9 -5 -2 -3 -5 -5 -6 -5 -1 -1 -3 1 -7 4 -5 5 -10 7 -21 9 -6 1 -8 2
-12 5 -5 5 -8 5 -14 0 -3 -2 -6 -4 -7 -4 l-2 0 -1 71 0 72 -160 0 -160 0 0
-240z m405 20 c2 -2 6 -9 6 -13 0 -3 -3 -8 -6 -11 -4 -4 -17 -11 -23 -12 -7
-2 -8 -1 -3 6 1 4 3 7 3 8 0 1 1 2 2 3 1 1 1 1 3 0 1 -1 2 -2 3 -1 0 0 1 -1 2
-1 2 -3 3 -2 3 0 0 1 1 3 2 3 1 1 1 2 0 4 -1 2 -1 3 1 8 3 8 3 8 7 6z m-43
-36 c0 -2 4 -10 5 -11 3 -2 -4 -3 -10 -1 -2 0 -2 1 -2 4 1 5 4 10 6 10 0 0 1
-1 1 -2z m-7 -2 c0 -1 -1 -2 -1 -2 -2 0 -2 1 -1 2 1 1 2 1 2 0z m-31 -2 c0 -1
-1 -1 -1 -1 -1 -1 -2 -1 -2 0 0 1 1 1 2 1 0 0 1 0 1 0z"/>
<path d="M282 263 c-1 -1 -2 -1 -5 -1 -5 1 -6 -1 -6 -7 0 -4 3 -10 8 -14 3 -3
16 -12 17 -12 1 0 1 2 1 3 0 4 -6 15 -8 15 0 0 -1 -2 -2 -4 -2 -4 -4 -3 -4 1
0 2 0 2 -2 2 -1 0 -2 0 -2 1 3 5 5 10 5 14 1 4 0 5 -2 2z"/>
<path d="M287 120 c-1 -4 -3 -9 -5 -12 -2 -6 -2 -8 0 -9 2 -1 2 -1 3 0 1 1 5
26 5 27 0 0 -2 -3 -3 -6z"/>
<path d="M265 60 c0 -2 0 -3 1 -2 0 1 0 3 0 4 -1 1 -1 0 -1 -2z"/>
</g>
</svg>
